<?xml version="1.0" standalone="no"?>
<!DOCTYPE svg PUBLIC "-//W3C//DTD SVG 20010904//EN"
 "http://www.w3.org/TR/2001/REC-SVG-20010904/DTD/svg10.dtd">
<svg version="1.0" xmlns="http://www.w3.org/2000/svg"
 width="700.000000pt" height="700.000000pt" viewBox="0 0 700.000000 700.000000"
 preserveAspectRatio="xMidYMid meet">
<metadata>
Created by potrace 1.14, written by Peter Selinger 2001-2017
</metadata>
<g transform="translate(0.000000,700.000000) scale(0.100000,-0.100000)"
fill="#000000" stroke="none">
<path d="M695 6985 c-320 -72 -556 -288 -662 -605 l-28 -85 0 -2795 0 -2795
28 -85 c97 -290 297 -490 587 -587 l85 -28 2795 0 2795 0 85 28 c290 97 490
297 587 587 l28 85 0 2795 0 2795 -28 85 c-97 290 -297 490 -587 587 l-85 28
-2770 2 c-2295 1 -2780 -1 -2830 -12z m1932 -2177 l873 -873 875 875 875 875
217 -218 218 -217 -875 -875 -875 -875 875 -875 875 -875 -218 -217 -217 -218
-875 875 -875 875 -875 -875 -875 -875 -217 218 -218 217 875 875 875 875
-875 875 -875 875 215 215 c118 118 217 215 220 215 3 0 398 -393 877 -872z
m1058 832 c90 -43 162 -115 206 -205 33 -67 34 -74 34 -185 0 -111 -1 -118
-34 -185 -20 -40 -56 -91 -85 -121 -30 -29 -81 -65 -121 -85 -67 -33 -74 -34
-185 -34 -111 0 -118 1 -185 34 -90 44 -162 116 -206 206 -33 67 -34 74 -34
185 0 109 2 118 32 180 56 115 135 186 254 231 44 16 73 19 154 16 90 -3 107
-6 170 -37z m-1750 -1750 c90 -43 162 -115 206 -205 33 -67 34 -74 34 -185 0
-111 -1 -118 -34 -185 -20 -40 -56 -91 -85 -121 -30 -29 -81 -65 -121 -85 -67
-33 -74 -34 -185 -34 -111 0 -118 1 -185 34 -90 44 -162 116 -206 206 -33 67
-34 74 -34 185 0 109 2 118 32 180 56 115 135 186 254 231 44 16 73 19 154 16
90 -3 107 -6 170 -37z m3500 0 c90 -43 162 -115 206 -205 33 -67 34 -74 34
-185 0 -111 -1 -118 -34 -185 -44 -90 -116 -162 -206 -206 -67 -33 -74 -34
-185 -34 -111 0 -118 1 -185 34 -90 44 -162 116 -206 206 -33 67 -34 74 -34
185 0 109 2 118 32 180 56 115 135 186 254 231 44 16 73 19 154 16 90 -3 107
-6 170 -37z m-1750 -1750 c90 -43 162 -115 206 -205 33 -67 34 -74 34 -185 0
-111 -1 -118 -34 -185 -20 -40 -56 -91 -85 -121 -30 -29 -81 -65 -121 -85 -67
-33 -74 -34 -185 -34 -111 0 -118 1 -185 34 -90 44 -162 116 -206 206 -33 67
-34 74 -34 185 0 109 2 118 32 180 56 115 135 186 254 231 44 16 73 19 154 16
90 -3 107 -6 170 -37z"/>
</g>
</svg>
