<svg xmlns="http://www.w3.org/2000/svg" width="16" height="16" display="none"><symbol id="icon-bootstrap" viewBox="0 0 24 24"><path d="M11.77 11.24H9.956V8.202h2.152c1.17 0 1.834.522 1.834 1.466c0 1.008-.773 1.572-2.174 1.572zm.324 1.206H9.957v3.348h2.231c1.459 0 2.232-.585 2.232-1.685s-.795-1.663-2.326-1.663zM24 11.39v1.218c-1.128.108-1.817.944-2.226 2.268c-.407 1.319-.463 2.937-.42 4.186c.045 1.3-.968 2.5-2.337 2.5H4.985c-1.37 0-2.383-1.2-2.337-2.5c.043-1.249-.013-2.867-.42-4.186c-.41-1.324-1.1-2.16-2.228-2.268V11.39c1.128-.108 1.819-.944 2.227-2.268c.408-1.319.464-2.937.42-4.186c-.045-1.3.968-2.5 2.338-2.5h14.032c1.37 0 2.382 1.2 2.337 2.5c-.043 1.249.013 2.867.42 4.186c.409 1.324 1.098 2.16 2.226 2.268zm-7.927 2.817c0-1.354-.953-2.333-2.368-2.488v-.057c1.04-.169 1.856-1.135 1.856-2.213c0-1.537-1.213-2.538-3.062-2.538h-4.16v10.172h4.181c2.218 0 3.553-1.086 3.553-2.876z"/></symbol><symbol id="icon-close" viewBox="0 0 24 24"><path d="m12 13.4l-4.9 4.9q-.275.275-.7.275t-.7-.275q-.275-.275-.275-.7t.275-.7l4.9-4.9l-4.9-4.9q-.275-.275-.275-.7t.275-.7q.275-.275.7-.275t.7.275l4.9 4.9l4.9-4.9q.275-.275.7-.275t.7.275q.275.275.275.7t-.275.7L13.4 12l4.9 4.9q.275.275.275.7t-.275.7q-.275.275-.7.275t-.7-.275L12 13.4Z"/></symbol><symbol id="icon-creative-commons-by" viewBox="0 0 496 512"><path d="M314.9 194.4v101.4h-28.3v120.5h-77.1V295.9h-28.3V194.4c0-4.4 1.6-8.2 4.6-11.3c3.1-3.1 6.9-4.7 11.3-4.7H299c4.1 0 7.8 1.6 11.1 4.7c3.1 3.2 4.8 6.9 4.8 11.3zm-101.5-63.7c0-23.3 11.5-35 34.5-35s34.5 11.7 34.5 35c0 23-11.5 34.5-34.5 34.5s-34.5-11.5-34.5-34.5zM247.6 8C389.4 8 496 118.1 496 256c0 147.1-118.5 248-248.4 248C113.6 504 0 394.5 0 256C0 123.1 104.7 8 247.6 8zm.8 44.7C130.2 52.7 44.7 150.6 44.7 256c0 109.8 91.2 202.8 203.7 202.8c103.2 0 202.8-81.1 202.8-202.8c.1-113.8-90.2-203.3-202.8-203.3z"/></symbol><symbol id="icon-creative-commons-nc" viewBox="0 0 496 512"><path d="M247.6 8C387.4 8 496 115.9 496 256c0 147.2-118.5 248-248.4 248C113.1 504 0 393.2 0 256C0 123.1 104.7 8 247.6 8zM55.8 189.1c-7.4 20.4-11.1 42.7-11.1 66.9c0 110.9 92.1 202.4 203.7 202.4c122.4 0 177.2-101.8 178.5-104.1l-93.4-41.6c-7.7 37.1-41.2 53-68.2 55.4v38.1h-28.8V368c-27.5-.3-52.6-10.2-75.3-29.7l34.1-34.5c31.7 29.4 86.4 31.8 86.4-2.2c0-6.2-2.2-11.2-6.6-15.1c-14.2-6-1.8-.1-219.3-97.4zM248.4 52.3c-38.4 0-112.4 8.7-170.5 93l94.8 42.5c10-31.3 40.4-42.9 63.8-44.3v-38.1h28.8v38.1c22.7 1.2 43.4 8.9 62 23L295 199.7c-42.7-29.9-83.5-8-70 11.1c53.4 24.1 43.8 19.8 93 41.6l127.1 56.7c4.1-17.4 6.2-35.1 6.2-53.1c0-57-19.8-105-59.3-143.9c-39.3-39.9-87.2-59.8-143.6-59.8z"/></symbol><symbol id="icon-creative-commons-sa" viewBox="0 0 496 512"><path d="M247.6 8C389.4 8 496 118.1 496 256c0 147.1-118.5 248-248.4 248C113.6 504 0 394.5 0 256C0 123.1 104.7 8 247.6 8zm.8 44.7C130.2 52.7 44.7 150.6 44.7 256c0 109.8 91.2 202.8 203.7 202.8c103.2 0 202.8-81.1 202.8-202.8c.1-113.8-90.2-203.3-202.8-203.3zM137.7 221c13-83.9 80.5-95.7 108.9-95.7c99.8 0 127.5 82.5 127.5 134.2c0 63.6-41 132.9-128.9 132.9c-38.9 0-99.1-20-109.4-97h62.5c1.5 30.1 19.6 45.2 54.5 45.2c23.3 0 58-18.2 58-82.8c0-82.5-49.1-80.6-56.7-80.6c-33.1 0-51.7 14.6-55.8 43.8h18.2l-49.2 49.2l-49-49.2h19.4z"/></symbol><symbol id="icon-creative-commons" viewBox="0 0 496 512"><path d="m245.83 214.87l-33.22 17.28c-9.43-19.58-25.24-19.93-27.46-19.93c-22.13 0-33.22 14.61-33.22 43.84c0 23.57 9.21 43.84 33.22 43.84c14.47 0 24.65-7.09 30.57-21.26l30.55 15.5c-6.17 11.51-25.69 38.98-65.1 38.98c-22.6 0-73.96-10.32-73.96-77.05c0-58.69 43-77.06 72.63-77.06c30.72-.01 52.7 11.95 65.99 35.86zm143.05 0l-32.78 17.28c-9.5-19.77-25.72-19.93-27.9-19.93c-22.14 0-33.22 14.61-33.22 43.84c0 23.55 9.23 43.84 33.22 43.84c14.45 0 24.65-7.09 30.54-21.26l31 15.5c-2.1 3.75-21.39 38.98-65.09 38.98c-22.69 0-73.96-9.87-73.96-77.05c0-58.67 42.97-77.06 72.63-77.06c30.71-.01 52.58 11.95 65.56 35.86zM247.56 8.05C104.74 8.05 0 123.11 0 256.05c0 138.49 113.6 248 247.56 248c129.93 0 248.44-100.87 248.44-248c0-137.87-106.62-248-248.44-248zm.87 450.81c-112.54 0-203.7-93.04-203.7-202.81c0-105.42 85.43-203.27 203.72-203.27c112.53 0 202.82 89.46 202.82 203.26c-.01 121.69-99.68 202.82-202.84 202.82z"/></symbol><symbol id="icon-diagramsdotnet" viewBox="0 0 24 24"><path d="M19.69 13.419h-2.527l-2.667-4.555a1.292 1.292 0 0 0 1.035-1.28V4.16c0-.725-.576-1.312-1.302-1.312H9.771c-.726 0-1.312.576-1.312 1.301v3.435c0 .619.426 1.152 1.034 1.28l-2.666 4.555H4.309c-.725 0-1.312.576-1.312 1.301v3.435c0 .725.576 1.312 1.302 1.312h4.458c.726 0 1.312-.576 1.312-1.302v-3.434c0-.726-.576-1.312-1.301-1.312h-.437l2.645-4.523h2.059l2.656 4.523h-.438c-.725 0-1.312.576-1.312 1.301v3.435c0 .725.576 1.312 1.302 1.312H19.7c.726 0 1.312-.576 1.312-1.302v-3.434c0-.726-.576-1.312-1.301-1.312zM24 22.976c0 .565-.459 1.024-1.013 1.024H1.024A1.022 1.022 0 0 1 0 22.987V1.024C0 .459.459 0 1.013 0h21.963C23.541 0 24 .459 24 1.013z"/></symbol><symbol id="icon-dots" viewBox="0 0 24 24"><path d="M16 12a2 2 0 0 1 2-2a2 2 0 0 1 2 2a2 2 0 0 1-2 2a2 2 0 0 1-2-2m-6 0a2 2 0 0 1 2-2a2 2 0 0 1 2 2a2 2 0 0 1-2 2a2 2 0 0 1-2-2m-6 0a2 2 0 0 1 2-2a2 2 0 0 1 2 2a2 2 0 0 1-2 2a2 2 0 0 1-2-2Z"/></symbol><symbol id="icon-email" viewBox="0 0 24 24"><path d="M12 22q-2.05 0-3.875-.788t-3.188-2.15q-1.362-1.362-2.15-3.187T2 12q0-2.075.788-3.888t2.15-3.174Q6.3 3.575 8.124 2.788T12 2q2.075 0 3.888.788t3.174 2.15q1.363 1.362 2.15 3.175T22 12v1.45q0 1.475-1.012 2.513T18.5 17q-.9 0-1.675-.4t-1.275-1.05q-.675.675-1.588 1.063T12 17q-2.075 0-3.538-1.463T7 12q0-2.075 1.463-3.538T12 7q2.075 0 3.538 1.463T17 12v1.45q0 .725.45 1.137T18.5 15q.6 0 1.05-.413T20 13.45V12q0-3.275-2.363-5.638T12 4Q8.725 4 6.362 6.363T4 12q0 3.275 2.363 5.638T12 20h4q.425 0 .713.288T17 21q0 .425-.288.713T16 22h-4Zm0-7q1.25 0 2.125-.875T15 12q0-1.25-.875-2.125T12 9q-1.25 0-2.125.875T9 12q0 1.25.875 2.125T12 15Z"/></symbol><symbol id="icon-folder-open" viewBox="0 0 24 24"><path d="M4 20q-.825 0-1.413-.588T2 18V6q0-.825.588-1.413T4 4h5.175q.4 0 .763.15t.637.425L12 6h8q.825 0 1.413.588T22 8H6q-.825 0-1.413.588T4 10v8l1.975-6.575q.2-.65.738-1.038T7.9 10h12.9q1.025 0 1.613.813t.312 1.762l-1.8 6q-.2.65-.738 1.038T19 20H4Z"/></symbol><symbol id="icon-folder" viewBox="0 0 24 24"><path d="M4 20q-.825 0-1.413-.588T2 18V6q0-.825.588-1.413T4 4h5.175q.4 0 .763.15t.637.425L12 6h8q.825 0 1.413.588T22 8v10q0 .825-.588 1.413T20 20H4Z"/></symbol><symbol id="icon-github" viewBox="0 0 16 16"><path d="M8 0c4.42 0 8 3.58 8 8a8.013 8.013 0 0 1-5.45 7.59c-.4.08-.55-.17-.55-.38c0-.27.01-1.13.01-2.2c0-.75-.25-1.23-.54-1.48c1.78-.2 3.65-.88 3.65-3.95c0-.88-.31-1.59-.82-2.15c.08-.2.36-1.02-.08-2.12c0 0-.67-.22-2.2.82c-.64-.18-1.32-.27-2-.27c-.68 0-1.36.09-2 .27c-1.53-1.03-2.2-.82-2.2-.82c-.44 1.1-.16 1.92-.08 2.12c-.51.56-.82 1.28-.82 2.15c0 3.06 1.86 3.75 3.64 3.95c-.23.2-.44.55-.51 1.07c-.46.21-1.61.55-2.33-.66c-.15-.24-.6-.83-1.23-.82c-.67.01-.27.38.01.53c.34.19.73.9.82 1.13c.16.45.68 1.31 2.69.94c0 .67.01 1.3.01 1.49c0 .21-.15.45-.55.38A7.995 7.995 0 0 1 0 8c0-4.42 3.58-8 8-8Z"/></symbol><symbol id="icon-heart" viewBox="0 0 16 16"><path id="heart" fill-rule="evenodd" d="M8 1.314C12.438-3.248 23.534 4.735 8 15C-7.534 4.736 3.562-3.248 8 1.314z"/></symbol><symbol id="icon-hugo" viewBox="0 0 24 24"><path d="M11.754 0a3.998 3.998 0 0 0-2.049.596L3.33 4.532a4.252 4.252 0 0 0-2.017 3.615v8.03a4.13 4.13 0 0 0 2.067 3.574l6.486 3.733a3.88 3.88 0 0 0 3.835.018l7.043-3.966a3.817 3.817 0 0 0 1.943-3.323V7.752a3.57 3.57 0 0 0-1.774-3.084L13.817.541a3.998 3.998 0 0 0-2.063-.54zm.022 1.674c.413-.006.828.1 1.2.315l7.095 4.127c.584.34.941.96.94 1.635v8.462c0 .774-.414 1.484-1.089 1.864l-7.042 3.966a2.199 2.199 0 0 1-2.179-.01l-6.485-3.734a2.447 2.447 0 0 1-1.228-2.123v-8.03c0-.893.461-1.72 1.221-2.19l6.376-3.935a2.323 2.323 0 0 1 1.19-.347zm-4.7 3.844V18.37h2.69v-5.62h4.46v5.62h2.696V5.518h-2.696v4.681h-4.46V5.518Z"/></symbol><symbol id="icon-iconify" viewBox="0 0 24 24"><path d="M12 19.5c3.75 0 7.159-3.379 6.768-4.125c-.393-.75-2.268 1.875-6.768 1.875s-6-2.625-6.375-1.875S8.25 19.5 12 19.5zm4.125-12c.623 0 1.125.502 1.125 1.125v1.5c0 .623-.502 1.125-1.125 1.125A1.123 1.123 0 0 1 15 10.125v-1.5c0-.623.502-1.125 1.125-1.125zm-8.25 0C8.498 7.5 9 8.002 9 8.625v1.5c0 .623-.502 1.125-1.125 1.125a1.123 1.123 0 0 1-1.125-1.125v-1.5c0-.623.502-1.125 1.125-1.125zM12 0C5.381 0 0 5.381 0 12s5.381 12 12 12s12-5.381 12-12S18.619 0 12 0zm0 1.5c5.808 0 10.5 4.692 10.5 10.5S17.808 22.5 12 22.5S1.5 17.808 1.5 12S6.192 1.5 12 1.5Z"/></symbol><symbol id="icon-json" viewBox="0 0 16 16"><path fill-rule="evenodd" d="M14 4.5V11h-1V4.5h-2A1.5 1.5 0 0 1 9.5 3V1H4a1 1 0 0 0-1 1v9H2V2a2 2 0 0 1 2-2h5.5L14 4.5ZM4.151 15.29a1.176 1.176 0 0 1-.111-.449h.764a.578.578 0 0 0 .255.384c.07.049.154.087.25.114c.095.028.201.041.319.041c.164 0 .301-.023.413-.07a.559.559 0 0 0 .255-.193a.507.507 0 0 0 .084-.29a.387.387 0 0 0-.152-.326c-.101-.08-.256-.144-.463-.193l-.618-.143a1.72 1.72 0 0 1-.539-.214a1.001 1.001 0 0 1-.352-.367a1.068 1.068 0 0 1-.123-.524c0-.244.064-.457.19-.639c.128-.181.304-.322.528-.422c.225-.1.484-.149.777-.149c.304 0 .564.05.779.152c.217.102.384.239.5.41c.12.17.186.359.2.566h-.75a.56.56 0 0 0-.12-.258a.624.624 0 0 0-.246-.181a.923.923 0 0 0-.37-.068c-.216 0-.387.05-.512.152a.472.472 0 0 0-.185.384c0 .121.048.22.144.3a.97.97 0 0 0 .404.175l.621.143c.217.05.406.12.566.211a1 1 0 0 1 .375.358c.09.148.135.335.135.56c0 .247-.063.466-.188.656a1.216 1.216 0 0 1-.539.439c-.234.105-.52.158-.858.158c-.254 0-.476-.03-.665-.09a1.404 1.404 0 0 1-.478-.252a1.13 1.13 0 0 1-.29-.375Zm-3.104-.033a1.32 1.32 0 0 1-.082-.466h.764a.576.576 0 0 0 .074.27a.499.499 0 0 0 .454.246c.19 0 .33-.055.422-.164c.091-.11.137-.265.137-.466v-2.745h.791v2.725c0 .44-.119.774-.357 1.005c-.237.23-.565.345-.985.345a1.59 1.59 0 0 1-.568-.094a1.145 1.145 0 0 1-.407-.266a1.14 1.14 0 0 1-.243-.39Zm9.091-1.585v.522c0 .256-.039.47-.117.641a.862.862 0 0 1-.322.387a.877.877 0 0 1-.47.126a.883.883 0 0 1-.47-.126a.87.87 0 0 1-.32-.387a1.55 1.55 0 0 1-.117-.641v-.522c0-.258.039-.471.117-.641a.87.87 0 0 1 .32-.387a.868.868 0 0 1 .47-.129c.177 0 .333.043.47.129a.862.862 0 0 1 .322.387c.078.17.117.383.117.641Zm.803.519v-.513c0-.377-.069-.701-.205-.973a1.46 1.46 0 0 0-.59-.63c-.253-.146-.559-.22-.916-.22c-.356 0-.662.074-.92.22a1.441 1.441 0 0 0-.589.628c-.137.271-.205.596-.205.975v.513c0 .375.068.699.205.973c.137.271.333.48.589.626c.258.145.564.217.92.217c.357 0 .663-.072.917-.217c.256-.146.452-.355.589-.626c.136-.274.205-.598.205-.973Zm1.29-.935v2.675h-.746v-3.999h.662l1.752 2.66h.032v-2.66h.75v4h-.656l-1.761-2.676h-.032Z"/></symbol><symbol id="icon-leetcode" viewBox="0 0 24 24"><path d="M13.483 0a1.374 1.374 0 0 0-.961.438L7.116 6.226l-3.854 4.126a5.266 5.266 0 0 0-1.209 2.104a5.35 5.35 0 0 0-.125.513a5.527 5.527 0 0 0 .062 2.362a5.83 5.83 0 0 0 .349 1.017a5.938 5.938 0 0 0 1.271 1.818l4.277 4.193l.039.038c2.248 2.165 5.852 2.133 8.063-.074l2.396-2.392c.54-.54.54-1.414.003-1.955a1.378 1.378 0 0 0-1.951-.003l-2.396 2.392a3.021 3.021 0 0 1-4.205.038l-.02-.019l-4.276-4.193c-.652-.64-.972-1.469-.948-2.263a2.68 2.68 0 0 1 .066-.523a2.545 2.545 0 0 1 .619-1.164L9.13 8.114c1.058-1.134 3.204-1.27 4.43-.278l3.501 2.831c.593.48 1.461.387 1.94-.207a1.384 1.384 0 0 0-.207-1.943l-3.5-2.831c-.8-.647-1.766-1.045-2.774-1.202l2.015-2.158A1.384 1.384 0 0 0 13.483 0zm-2.866 12.815a1.38 1.38 0 0 0-1.38 1.382a1.38 1.38 0 0 0 1.38 1.382H20.79a1.38 1.38 0 0 0 1.38-1.382a1.38 1.38 0 0 0-1.38-1.382z"/></symbol><symbol id="icon-linkedin" viewBox="0 0 16 16"><path d="M0 1.146C0 .513.526 0 1.175 0h13.65C15.474 0 16 .513 16 1.146v13.708c0 .633-.526 1.146-1.175 1.146H1.175C.526 16 0 15.487 0 14.854V1.146zm4.943 12.248V6.169H2.542v7.225h2.401zm-1.2-8.212c.837 0 1.358-.554 1.358-1.248c-.015-.709-.52-1.248-1.342-1.248c-.822 0-1.359.54-1.359 1.248c0 .694.521 1.248 1.327 1.248h.016zm4.908 8.212V9.359c0-.216.016-.432.08-.586c.173-.431.568-.878 1.232-.878c.869 0 1.216.662 1.216 1.634v3.865h2.401V9.25c0-2.22-1.184-3.252-2.764-3.252c-1.274 0-1.845.7-2.165 1.193v.025h-.016a5.54 5.54 0 0 1 .016-.025V6.169h-2.4c.03.678 0 7.225 0 7.225h2.4z"/></symbol><symbol id="icon-location" viewBox="0 0 24 24"><path d="M12 12q.825 0 1.413-.588T14 10q0-.825-.588-1.413T12 8q-.825 0-1.413.588T10 10q0 .825.588 1.413T12 12Zm0 7.35q3.05-2.8 4.525-5.088T18 10.2q0-2.725-1.738-4.462T12 4Q9.475 4 7.737 5.738T6 10.2q0 1.775 1.475 4.063T12 19.35ZM12 22q-4.025-3.425-6.012-6.362T4 10.2q0-3.75 2.413-5.975T12 2q3.175 0 5.588 2.225T20 10.2q0 2.5-1.988 5.438T12 22Zm0-11.8Z"/></symbol><symbol id="icon-markdown" viewBox="0 0 24 24"><path d="M22.27 19.385H1.73A1.73 1.73 0 0 1 0 17.655V6.345a1.73 1.73 0 0 1 1.73-1.73h20.54A1.73 1.73 0 0 1 24 6.345v11.308a1.73 1.73 0 0 1-1.73 1.731zM5.769 15.923v-4.5l2.308 2.885l2.307-2.885v4.5h2.308V8.078h-2.308l-2.307 2.885l-2.308-2.885H3.46v7.847zM21.232 12h-2.309V8.077h-2.307V12h-2.308l3.461 4.039z"/></symbol><symbol id="icon-navbar" viewBox="0 0 20 20"><path d="M4 12a2 2 0 1 1 0-4a2 2 0 0 1 0 4zm6 0a2 2 0 1 1 0-4a2 2 0 0 1 0 4zm6 0a2 2 0 1 1 0-4a2 2 0 0 1 0 4z"/></symbol><symbol id="icon-note-edit" viewBox="0 0 24 24"><path d="M20.125 15L18 12.875l.725-.725q.275-.275.7-.275t.7.275l.725.725q.275.275.275.7t-.275.7l-.725.725ZM12 21v-2.125l5.3-5.3l2.125 2.125l-5.3 5.3H12Zm-9-5v-2h7v2H3Zm0-4v-2h11v2H3Zm0-4V6h11v2H3Z"/></symbol><symbol id="icon-note" viewBox="0 0 24 24"><path d="M5 19h9v-5h5V5H5v14Zm0 2q-.825 0-1.413-.588T3 19V5q0-.825.588-1.413T5 3h14q.825 0 1.413.588T21 5v10l-6 6H5Zm2-7v-2h5v2H7Zm0-4V8h10v2H7Zm-2 9V5v14Z"/></symbol><symbol id="icon-pdf" viewBox="0 0 16 16"><path fill-rule="evenodd" d="M14 4.5V14a2 2 0 0 1-2 2h-1v-1h1a1 1 0 0 0 1-1V4.5h-2A1.5 1.5 0 0 1 9.5 3V1H4a1 1 0 0 0-1 1v9H2V2a2 2 0 0 1 2-2h5.5L14 4.5ZM1.6 11.85H0v3.999h.791v-1.342h.803c.287 0 .531-.057.732-.173c.203-.117.358-.275.463-.474a1.42 1.42 0 0 0 .161-.677c0-.25-.053-.476-.158-.677a1.176 1.176 0 0 0-.46-.477c-.2-.12-.443-.179-.732-.179Zm.545 1.333a.795.795 0 0 1-.085.38a.574.574 0 0 1-.238.241a.794.794 0 0 1-.375.082H.788V12.48h.66c.218 0 .389.06.512.181c.123.122.185.296.185.522Zm1.217-1.333v3.999h1.46c.401 0 .734-.08.998-.237a1.45 1.45 0 0 0 .595-.689c.13-.3.196-.662.196-1.084c0-.42-.065-.778-.196-1.075a1.426 1.426 0 0 0-.589-.68c-.264-.156-.599-.234-1.005-.234H3.362Zm.791.645h.563c.248 0 .45.05.609.152a.89.89 0 0 1 .354.454c.079.201.118.452.118.753a2.3 2.3 0 0 1-.068.592a1.14 1.14 0 0 1-.196.422a.8.8 0 0 1-.334.252a1.298 1.298 0 0 1-.483.082h-.563v-2.707Zm3.743 1.763v1.591h-.79V11.85h2.548v.653H7.896v1.117h1.606v.638H7.896Z"/></symbol><symbol id="icon-phone" viewBox="0 0 24 24"><path d="M10 20h4v-1h-4v1Zm-3 3q-.825 0-1.413-.588T5 21V3q0-.825.588-1.413T7 1h10q.825 0 1.413.588T19 3v18q0 .825-.588 1.413T17 23H7Zm0-5v3h10v-3H7Zm0-2h10V6H7v10ZM7 4h10V3H7v1Zm0 14v3v-3ZM7 4V3v1Z"/></symbol><symbol id="icon-sass" viewBox="0 0 24 24"><path d="M12 0c6.627 0 12 5.373 12 12s-5.373 12-12 12S0 18.627 0 12S5.373 0 12 0zM9.615 15.998c.175.645.156 1.248-.024 1.792l-.065.18c-.024.061-.052.12-.078.176c-.14.29-.326.56-.555.81c-.698.759-1.672 1.047-2.09.805c-.45-.262-.226-1.335.584-2.19c.871-.918 2.12-1.509 2.12-1.509v-.003l.108-.061zm9.911-10.861c-.542-2.133-4.077-2.834-7.422-1.645c-1.989.707-4.144 1.818-5.693 3.267C4.568 8.48 4.275 9.98 4.396 10.607c.427 2.211 3.457 3.657 4.703 4.73v.006c-.367.18-3.056 1.529-3.686 2.925c-.675 1.47.105 2.521.615 2.655c1.575.436 3.195-.36 4.065-1.649c.84-1.261.766-2.881.404-3.676c.496-.135 1.08-.195 1.83-.104c2.101.24 2.521 1.56 2.43 2.1c-.09.539-.523.854-.674.944c-.15.091-.195.12-.181.181c.015.09.091.09.21.075c.165-.03 1.096-.45 1.141-1.471c.045-1.29-1.186-2.729-3.375-2.7c-.9.016-1.471.091-1.875.256a.362.362 0 0 0-.105-.105c-1.35-1.455-3.855-2.475-3.75-4.41c.03-.705.285-2.564 4.8-4.814c3.705-1.846 6.661-1.335 7.171-.21c.733 1.604-1.576 4.59-5.431 5.024c-1.47.165-2.235-.404-2.431-.615c-.209-.225-.239-.24-.314-.194c-.12.06-.045.255 0 .375c.12.3.585.825 1.396 1.095c.704.225 2.43.359 4.5-.45c2.324-.899 4.139-3.405 3.614-5.505l.073.067z"/></symbol><symbol id="icon-search" viewBox="0 0 24 24"><path d="m18.9 20.3l-5.6-5.6q-.75.6-1.725.95T9.5 16q-2.725 0-4.612-1.888T3 9.5q0-2.725 1.888-4.612T9.5 3q2.725 0 4.612 1.888T16 9.5q0 1.1-.35 2.075T14.7 13.3l5.625 5.625q.275.275.275.675t-.3.7q-.275.275-.7.275t-.7-.275ZM9.5 14q1.875 0 3.188-1.313T14 9.5q0-1.875-1.313-3.188T9.5 5Q7.625 5 6.312 6.313T5 9.5q0 1.875 1.313 3.188T9.5 14Z"/></symbol><symbol id="icon-sidebar" viewBox="0 0 24 24"><path d="M4 18q-.425 0-.713-.288T3 17q0-.425.288-.713T4 16h16q.425 0 .713.288T21 17q0 .425-.288.713T20 18H4Zm0-5q-.425 0-.713-.288T3 12q0-.425.288-.713T4 11h16q.425 0 .713.288T21 12q0 .425-.288.713T20 13H4Zm0-5q-.425 0-.713-.288T3 7q0-.425.288-.713T4 6h16q.425 0 .713.288T21 7q0 .425-.288.713T20 8H4Z"/></symbol><symbol id="icon-telegram" viewBox="0 0 24 24"><path d="M11.944 0A12 12 0 0 0 0 12a12 12 0 0 0 12 12a12 12 0 0 0 12-12A12 12 0 0 0 12 0a12 12 0 0 0-.056 0zm4.962 7.224c.1-.002.321.023.465.14a.506.506 0 0 1 .171.325c.016.093.036.306.02.472c-.18 1.898-.962 6.502-1.36 8.627c-.168.9-.499 1.201-.82 1.23c-.696.065-1.225-.46-1.9-.902c-1.056-.693-1.653-1.124-2.678-1.8c-1.185-.78-.417-1.21.258-1.91c.177-.184 3.247-2.977 3.307-3.23c.007-.032.014-.15-.056-.212s-.174-.041-.249-.024c-.106.024-1.793 1.14-5.061 3.345c-.48.33-.913.49-1.302.48c-.428-.008-1.252-.241-1.865-.44c-.752-.245-1.349-.374-1.297-.789c.027-.216.325-.437.893-.663c3.498-1.524 5.83-2.529 6.998-3.014c3.332-1.386 4.025-1.627 4.476-1.635z"/></symbol><symbol id="icon-typescript" viewBox="0 0 24 24"><path d="M1.125 0C.502 0 0 .502 0 1.125v21.75C0 23.498.502 24 1.125 24h21.75c.623 0 1.125-.502 1.125-1.125V1.125C24 .502 23.498 0 22.875 0zm17.363 9.75c.612 0 1.154.037 1.627.111a6.38 6.38 0 0 1 1.306.34v2.458a3.95 3.95 0 0 0-.643-.361a5.093 5.093 0 0 0-.717-.26a5.453 5.453 0 0 0-1.426-.2c-.3 0-.573.028-.819.086a2.1 2.1 0 0 0-.623.242c-.17.104-.3.229-.393.374a.888.888 0 0 0-.14.49c0 .196.053.373.156.529c.104.156.252.304.443.444s.423.276.696.41c.273.135.582.274.926.416c.47.197.892.407 1.266.628c.374.222.695.473.963.753c.268.279.472.598.614.957c.142.359.214.776.214 1.253c0 .657-.125 1.21-.373 1.656a3.033 3.033 0 0 1-1.012 1.085a4.38 4.38 0 0 1-1.487.596c-.566.12-1.163.18-1.79.18a9.916 9.916 0 0 1-1.84-.164a5.544 5.544 0 0 1-1.512-.493v-2.63a5.033 5.033 0 0 0 3.237 1.2c.333 0 .624-.03.872-.09c.249-.06.456-.144.623-.25c.166-.108.29-.234.373-.38a1.023 1.023 0 0 0-.074-1.089a2.12 2.12 0 0 0-.537-.5a5.597 5.597 0 0 0-.807-.444a27.72 27.72 0 0 0-1.007-.436c-.918-.383-1.602-.852-2.053-1.405c-.45-.553-.676-1.222-.676-2.005c0-.614.123-1.141.369-1.582c.246-.441.58-.804 1.004-1.089a4.494 4.494 0 0 1 1.47-.629a7.536 7.536 0 0 1 1.77-.201zm-15.113.188h9.563v2.166H9.506v9.646H6.789v-9.646H3.375z"/></symbol><symbol id="icon-website" viewBox="0 0 24 24"><path d="M16.36 14c.08-.66.14-1.32.14-2c0-.68-.06-1.34-.14-2h3.38c.16.64.26 1.31.26 2s-.1 1.36-.26 2m-5.15 5.56c.6-1.11 1.06-2.31 1.38-3.56h2.95a8.03 8.03 0 0 1-4.33 3.56M14.34 14H9.66c-.1-.66-.16-1.32-.16-2c0-.68.06-1.35.16-2h4.68c.09.65.16 1.32.16 2c0 .68-.07 1.34-.16 2M12 19.96c-.83-1.2-1.5-2.53-1.91-3.96h3.82c-.41 1.43-1.08 2.76-1.91 3.96M8 8H5.08A7.923 7.923 0 0 1 9.4 4.44C8.8 5.55 8.35 6.75 8 8m-2.92 8H8c.35 1.25.8 2.45 1.4 3.56A8.008 8.008 0 0 1 5.08 16m-.82-2C4.1 13.36 4 12.69 4 12s.1-1.36.26-2h3.38c-.08.66-.14 1.32-.14 2c0 .68.06 1.34.14 2M12 4.03c.83 1.2 1.5 2.54 1.91 3.97h-3.82c.41-1.43 1.08-2.77 1.91-3.97M18.92 8h-2.95a15.65 15.65 0 0 0-1.38-3.56c1.84.63 3.37 1.9 4.33 3.56M12 2C6.47 2 2 6.5 2 12a10 10 0 0 0 10 10a10 10 0 0 0 10-10A10 10 0 0 0 12 2Z"/></symbol></svg>