<svg xmlns="http://www.w3.org/2000/svg" width="16" height="16" display="none"><symbol id="icon-bash" viewBox="0 0 24 24"><path d="M21.038 4.9L13.461.402a2.86 2.86 0 0 0-2.923.001L2.961 4.9A3.023 3.023 0 0 0 1.5 7.503v8.995c0 1.073.557 2.066 1.462 2.603l7.577 4.497a2.86 2.86 0 0 0 2.922 0l7.577-4.497a3.023 3.023 0 0 0 1.462-2.603V7.503A3.021 3.021 0 0 0 21.038 4.9zM15.17 18.946l.013.646c.001.078-.05.167-.111.198l-.383.22c-.061.031-.111-.007-.112-.085l-.007-.635c-.328.136-.66.169-.872.084c-.04-.016-.057-.075-.041-.142l.139-.584a.24.24 0 0 1 .069-.121a.163.163 0 0 1 .036-.026c.022-.011.043-.014.062-.006c.229.077.521.041.802-.101c.357-.181.596-.545.592-.907c-.003-.328-.181-.465-.613-.468c-.55.001-1.064-.107-1.072-.917c-.007-.667.34-1.361.889-1.8l-.007-.652c-.001-.08.048-.168.111-.2l.37-.236c.061-.031.111.007.112.087l.006.653c.273-.109.511-.138.726-.088c.047.012.067.076.048.151l-.144.578a.255.255 0 0 1-.065.116a.161.161 0 0 1-.038.028a.083.083 0 0 1-.057.009c-.098-.022-.332-.073-.699.113c-.385.195-.52.53-.517.778c.003.297.155.387.681.396c.7.012 1.003.318 1.01 1.023c.007.689-.362 1.433-.928 1.888zm3.973-1.087c0 .06-.008.116-.058.145l-1.916 1.164c-.05.029-.09.004-.09-.056v-.494c0-.06.037-.093.087-.122l1.887-1.129c.05-.029.09-.004.09.056v.436zm1.316-11.062l-7.168 4.427c-.894.523-1.553 1.109-1.553 2.187v8.833c0 .645.26 1.063.66 1.184a2.304 2.304 0 0 1-.398.039c-.42 0-.833-.114-1.197-.33L3.226 18.64a2.494 2.494 0 0 1-1.201-2.142V7.503c0-.881.46-1.702 1.201-2.142L10.803.863a2.342 2.342 0 0 1 2.394 0l7.577 4.498a2.479 2.479 0 0 1 1.164 1.732c-.252-.536-.818-.682-1.479-.296z"/></symbol><symbol id="icon-batch" viewBox="0 0 16 16"><g><path d="m10.875 7l2.008 5h-.711l-2.008-5h.711zm-5.125.594c-.276 0-.526.041-.75.125a1.542 1.542 0 0 0-.578.375c-.162.166-.287.37-.375.61a2.364 2.364 0 0 0-.133.827c0 .287.04.547.117.781c.078.235.196.433.352.594c.156.162.346.29.57.383c.224.094.48.138.766.133a2.63 2.63 0 0 0 .992-.195l.125.484a1.998 1.998 0 0 1-.492.148a4.381 4.381 0 0 1-.75.07a2.61 2.61 0 0 1-.914-.156a2.207 2.207 0 0 1-.742-.453a1.878 1.878 0 0 1-.485-.742a3.204 3.204 0 0 1-.18-1.023c0-.365.06-.698.18-1c.12-.302.287-.563.5-.782c.214-.218.471-.388.774-.507a2.69 2.69 0 0 1 1-.18c.296 0 .536.023.718.07c.183.047.315.094.399.14l-.149.493a1.85 1.85 0 0 0-.406-.14a2.386 2.386 0 0 0-.539-.055zM8 8h1v1H8V8zm0 2h1v1H8v-1z"/><path d="M15.5 1H.5l-.5.5v13l.5.5h15l.5-.5v-13l-.5-.5zM15 14H1V5h14v9zm0-10H1V2h14v2z"/></g></symbol><symbol id="icon-bootstrap" viewBox="0 0 24 24"><path d="M11.77 11.24H9.956V8.202h2.152c1.17 0 1.834.522 1.834 1.466c0 1.008-.773 1.572-2.174 1.572zm.324 1.206H9.957v3.348h2.231c1.459 0 2.232-.585 2.232-1.685s-.795-1.663-2.326-1.663zM24 11.39v1.218c-1.128.108-1.817.944-2.226 2.268c-.407 1.319-.463 2.937-.42 4.186c.045 1.3-.968 2.5-2.337 2.5H4.985c-1.37 0-2.383-1.2-2.337-2.5c.043-1.249-.013-2.867-.42-4.186c-.41-1.324-1.1-2.16-2.228-2.268V11.39c1.128-.108 1.819-.944 2.227-2.268c.408-1.319.464-2.937.42-4.186c-.045-1.3.968-2.5 2.338-2.5h14.032c1.37 0 2.382 1.2 2.337 2.5c-.043 1.249.013 2.867.42 4.186c.409 1.324 1.098 2.16 2.226 2.268zm-7.927 2.817c0-1.354-.953-2.333-2.368-2.488v-.057c1.04-.169 1.856-1.135 1.856-2.213c0-1.537-1.213-2.538-3.062-2.538h-4.16v10.172h4.181c2.218 0 3.553-1.086 3.553-2.876z"/></symbol><symbol id="icon-close" viewBox="0 0 24 24"><path d="m12 13.4l-4.9 4.9q-.275.275-.7.275t-.7-.275q-.275-.275-.275-.7t.275-.7l4.9-4.9l-4.9-4.9q-.275-.275-.275-.7t.275-.7q.275-.275.7-.275t.7.275l4.9 4.9l4.9-4.9q.275-.275.7-.275t.7.275q.275.275.275.7t-.275.7L13.4 12l4.9 4.9q.275.275.275.7t-.275.7q-.275.275-.7.275t-.7-.275L12 13.4Z"/></symbol><symbol id="icon-cpp" viewBox="0 0 24 24"><path d="m10.5 15.97l.41 2.44c-.26.14-.68.27-1.24.39c-.57.13-1.24.2-2.01.2c-2.21-.04-3.87-.7-4.98-1.96C1.56 15.77 1 14.16 1 12.21c.05-2.31.72-4.08 2-5.32C4.32 5.64 5.96 5 7.94 5c.75 0 1.4.07 1.94.19s.94.25 1.2.4l-.58 2.49l-1.06-.34c-.4-.1-.86-.15-1.39-.15c-1.16-.01-2.12.36-2.87 1.1c-.76.73-1.15 1.85-1.18 3.34c0 1.36.37 2.42 1.08 3.2c.71.77 1.71 1.17 2.99 1.18l1.33-.12c.43-.08.79-.19 1.1-.32M11 11h2V9h2v2h2v2h-2v2h-2v-2h-2v-2m7 0h2V9h2v2h2v2h-2v2h-2v-2h-2v-2Z"/></symbol><symbol id="icon-creative-commons-by" viewBox="0 0 496 512"><path d="M314.9 194.4v101.4h-28.3v120.5h-77.1V295.9h-28.3V194.4c0-4.4 1.6-8.2 4.6-11.3c3.1-3.1 6.9-4.7 11.3-4.7H299c4.1 0 7.8 1.6 11.1 4.7c3.1 3.2 4.8 6.9 4.8 11.3zm-101.5-63.7c0-23.3 11.5-35 34.5-35s34.5 11.7 34.5 35c0 23-11.5 34.5-34.5 34.5s-34.5-11.5-34.5-34.5zM247.6 8C389.4 8 496 118.1 496 256c0 147.1-118.5 248-248.4 248C113.6 504 0 394.5 0 256C0 123.1 104.7 8 247.6 8zm.8 44.7C130.2 52.7 44.7 150.6 44.7 256c0 109.8 91.2 202.8 203.7 202.8c103.2 0 202.8-81.1 202.8-202.8c.1-113.8-90.2-203.3-202.8-203.3z"/></symbol><symbol id="icon-creative-commons-nc" viewBox="0 0 496 512"><path d="M247.6 8C387.4 8 496 115.9 496 256c0 147.2-118.5 248-248.4 248C113.1 504 0 393.2 0 256C0 123.1 104.7 8 247.6 8zM55.8 189.1c-7.4 20.4-11.1 42.7-11.1 66.9c0 110.9 92.1 202.4 203.7 202.4c122.4 0 177.2-101.8 178.5-104.1l-93.4-41.6c-7.7 37.1-41.2 53-68.2 55.4v38.1h-28.8V368c-27.5-.3-52.6-10.2-75.3-29.7l34.1-34.5c31.7 29.4 86.4 31.8 86.4-2.2c0-6.2-2.2-11.2-6.6-15.1c-14.2-6-1.8-.1-219.3-97.4zM248.4 52.3c-38.4 0-112.4 8.7-170.5 93l94.8 42.5c10-31.3 40.4-42.9 63.8-44.3v-38.1h28.8v38.1c22.7 1.2 43.4 8.9 62 23L295 199.7c-42.7-29.9-83.5-8-70 11.1c53.4 24.1 43.8 19.8 93 41.6l127.1 56.7c4.1-17.4 6.2-35.1 6.2-53.1c0-57-19.8-105-59.3-143.9c-39.3-39.9-87.2-59.8-143.6-59.8z"/></symbol><symbol id="icon-creative-commons-sa" viewBox="0 0 496 512"><path d="M247.6 8C389.4 8 496 118.1 496 256c0 147.1-118.5 248-248.4 248C113.6 504 0 394.5 0 256C0 123.1 104.7 8 247.6 8zm.8 44.7C130.2 52.7 44.7 150.6 44.7 256c0 109.8 91.2 202.8 203.7 202.8c103.2 0 202.8-81.1 202.8-202.8c.1-113.8-90.2-203.3-202.8-203.3zM137.7 221c13-83.9 80.5-95.7 108.9-95.7c99.8 0 127.5 82.5 127.5 134.2c0 63.6-41 132.9-128.9 132.9c-38.9 0-99.1-20-109.4-97h62.5c1.5 30.1 19.6 45.2 54.5 45.2c23.3 0 58-18.2 58-82.8c0-82.5-49.1-80.6-56.7-80.6c-33.1 0-51.7 14.6-55.8 43.8h18.2l-49.2 49.2l-49-49.2h19.4z"/></symbol><symbol id="icon-creative-commons" viewBox="0 0 496 512"><path d="m245.83 214.87l-33.22 17.28c-9.43-19.58-25.24-19.93-27.46-19.93c-22.13 0-33.22 14.61-33.22 43.84c0 23.57 9.21 43.84 33.22 43.84c14.47 0 24.65-7.09 30.57-21.26l30.55 15.5c-6.17 11.51-25.69 38.98-65.1 38.98c-22.6 0-73.96-10.32-73.96-77.05c0-58.69 43-77.06 72.63-77.06c30.72-.01 52.7 11.95 65.99 35.86zm143.05 0l-32.78 17.28c-9.5-19.77-25.72-19.93-27.9-19.93c-22.14 0-33.22 14.61-33.22 43.84c0 23.55 9.23 43.84 33.22 43.84c14.45 0 24.65-7.09 30.54-21.26l31 15.5c-2.1 3.75-21.39 38.98-65.09 38.98c-22.69 0-73.96-9.87-73.96-77.05c0-58.67 42.97-77.06 72.63-77.06c30.71-.01 52.58 11.95 65.56 35.86zM247.56 8.05C104.74 8.05 0 123.11 0 256.05c0 138.49 113.6 248 247.56 248c129.93 0 248.44-100.87 248.44-248c0-137.87-106.62-248-248.44-248zm.87 450.81c-112.54 0-203.7-93.04-203.7-202.81c0-105.42 85.43-203.27 203.72-203.27c112.53 0 202.82 89.46 202.82 203.26c-.01 121.69-99.68 202.82-202.84 202.82z"/></symbol><symbol id="icon-diagramsdotnet" viewBox="0 0 24 24"><path d="M19.69 13.419h-2.527l-2.667-4.555a1.292 1.292 0 0 0 1.035-1.28V4.16c0-.725-.576-1.312-1.302-1.312H9.771c-.726 0-1.312.576-1.312 1.301v3.435c0 .619.426 1.152 1.034 1.28l-2.666 4.555H4.309c-.725 0-1.312.576-1.312 1.301v3.435c0 .725.576 1.312 1.302 1.312h4.458c.726 0 1.312-.576 1.312-1.302v-3.434c0-.726-.576-1.312-1.301-1.312h-.437l2.645-4.523h2.059l2.656 4.523h-.438c-.725 0-1.312.576-1.312 1.301v3.435c0 .725.576 1.312 1.302 1.312H19.7c.726 0 1.312-.576 1.312-1.302v-3.434c0-.726-.576-1.312-1.301-1.312zM24 22.976c0 .565-.459 1.024-1.013 1.024H1.024A1.022 1.022 0 0 1 0 22.987V1.024C0 .459.459 0 1.013 0h21.963C23.541 0 24 .459 24 1.013z"/></symbol><symbol id="icon-diff" viewBox="0 0 24 24"><path d="M12.5 6.75a.75.75 0 0 0-1.5 0V9H8.75a.75.75 0 0 0 0 1.5H11v2.25a.75.75 0 0 0 1.5 0V10.5h2.25a.75.75 0 0 0 0-1.5H12.5V6.75ZM8.75 16a.75.75 0 0 0 0 1.5h6a.75.75 0 0 0 0-1.5h-6Z"/><path d="M5 1h9.982a2 2 0 0 1 1.414.586l4.018 4.018A2 2 0 0 1 21 7.018V21a2 2 0 0 1-2 2H5a2 2 0 0 1-2-2V3a2 2 0 0 1 2-2Zm-.5 2v18a.5.5 0 0 0 .5.5h14a.5.5 0 0 0 .5-.5V7.018a.5.5 0 0 0-.146-.354l-4.018-4.018a.5.5 0 0 0-.354-.146H5a.5.5 0 0 0-.5.5Z"/></symbol><symbol id="icon-docker" viewBox="0 0 24 24"><path d="M13.983 11.078h2.119a.186.186 0 0 0 .186-.185V9.006a.186.186 0 0 0-.186-.186h-2.119a.185.185 0 0 0-.185.185v1.888c0 .102.083.185.185.185m-2.954-5.43h2.118a.186.186 0 0 0 .186-.186V3.574a.186.186 0 0 0-.186-.185h-2.118a.185.185 0 0 0-.185.185v1.888c0 .102.082.185.185.185m0 2.716h2.118a.187.187 0 0 0 .186-.186V6.29a.186.186 0 0 0-.186-.185h-2.118a.185.185 0 0 0-.185.185v1.887c0 .102.082.185.185.186m-2.93 0h2.12a.186.186 0 0 0 .184-.186V6.29a.185.185 0 0 0-.185-.185H8.1a.185.185 0 0 0-.185.185v1.887c0 .102.083.185.185.186m-2.964 0h2.119a.186.186 0 0 0 .185-.186V6.29a.185.185 0 0 0-.185-.185H5.136a.186.186 0 0 0-.186.185v1.887c0 .102.084.185.186.186m5.893 2.715h2.118a.186.186 0 0 0 .186-.185V9.006a.186.186 0 0 0-.186-.186h-2.118a.185.185 0 0 0-.185.185v1.888c0 .102.082.185.185.185m-2.93 0h2.12a.185.185 0 0 0 .184-.185V9.006a.185.185 0 0 0-.184-.186h-2.12a.185.185 0 0 0-.184.185v1.888c0 .102.083.185.185.185m-2.964 0h2.119a.185.185 0 0 0 .185-.185V9.006a.185.185 0 0 0-.184-.186h-2.12a.186.186 0 0 0-.186.186v1.887c0 .102.084.185.186.185m-2.92 0h2.12a.185.185 0 0 0 .184-.185V9.006a.185.185 0 0 0-.184-.186h-2.12a.185.185 0 0 0-.184.185v1.888c0 .102.082.185.185.185M23.763 9.89c-.065-.051-.672-.51-1.954-.51c-.338.001-.676.03-1.01.087c-.248-1.7-1.653-2.53-1.716-2.566l-.344-.199l-.226.327c-.284.438-.49.922-.612 1.43c-.23.97-.09 1.882.403 2.661c-.595.332-1.55.413-1.744.42H.751a.751.751 0 0 0-.75.748a11.376 11.376 0 0 0 .692 4.062c.545 1.428 1.355 2.48 2.41 3.124c1.18.723 3.1 1.137 5.275 1.137a15.74 15.74 0 0 0 2.93-.266a12.248 12.248 0 0 0 3.823-1.389a10.51 10.51 0 0 0 2.61-2.136c1.252-1.418 1.998-2.997 2.553-4.4h.221c1.372 0 2.215-.549 2.68-1.009c.309-.293.55-.65.707-1.046l.098-.288Z"/></symbol><symbol id="icon-dockerfile" viewBox="0 0 24 24"><path d="M13.983 11.078h2.119a.186.186 0 0 0 .186-.185V9.006a.186.186 0 0 0-.186-.186h-2.119a.185.185 0 0 0-.185.185v1.888c0 .102.083.185.185.185m-2.954-5.43h2.118a.186.186 0 0 0 .186-.186V3.574a.186.186 0 0 0-.186-.185h-2.118a.185.185 0 0 0-.185.185v1.888c0 .102.082.185.185.185m0 2.716h2.118a.187.187 0 0 0 .186-.186V6.29a.186.186 0 0 0-.186-.185h-2.118a.185.185 0 0 0-.185.185v1.887c0 .102.082.185.185.186m-2.93 0h2.12a.186.186 0 0 0 .184-.186V6.29a.185.185 0 0 0-.185-.185H8.1a.185.185 0 0 0-.185.185v1.887c0 .102.083.185.185.186m-2.964 0h2.119a.186.186 0 0 0 .185-.186V6.29a.185.185 0 0 0-.185-.185H5.136a.186.186 0 0 0-.186.185v1.887c0 .102.084.185.186.186m5.893 2.715h2.118a.186.186 0 0 0 .186-.185V9.006a.186.186 0 0 0-.186-.186h-2.118a.185.185 0 0 0-.185.185v1.888c0 .102.082.185.185.185m-2.93 0h2.12a.185.185 0 0 0 .184-.185V9.006a.185.185 0 0 0-.184-.186h-2.12a.185.185 0 0 0-.184.185v1.888c0 .102.083.185.185.185m-2.964 0h2.119a.185.185 0 0 0 .185-.185V9.006a.185.185 0 0 0-.184-.186h-2.12a.186.186 0 0 0-.186.186v1.887c0 .102.084.185.186.185m-2.92 0h2.12a.185.185 0 0 0 .184-.185V9.006a.185.185 0 0 0-.184-.186h-2.12a.185.185 0 0 0-.184.185v1.888c0 .102.082.185.185.185M23.763 9.89c-.065-.051-.672-.51-1.954-.51c-.338.001-.676.03-1.01.087c-.248-1.7-1.653-2.53-1.716-2.566l-.344-.199l-.226.327c-.284.438-.49.922-.612 1.43c-.23.97-.09 1.882.403 2.661c-.595.332-1.55.413-1.744.42H.751a.751.751 0 0 0-.75.748a11.376 11.376 0 0 0 .692 4.062c.545 1.428 1.355 2.48 2.41 3.124c1.18.723 3.1 1.137 5.275 1.137a15.74 15.74 0 0 0 2.93-.266a12.248 12.248 0 0 0 3.823-1.389a10.51 10.51 0 0 0 2.61-2.136c1.252-1.418 1.998-2.997 2.553-4.4h.221c1.372 0 2.215-.549 2.68-1.009c.309-.293.55-.65.707-1.046l.098-.288Z"/></symbol><symbol id="icon-dots" viewBox="0 0 24 24"><path d="M16 12a2 2 0 0 1 2-2a2 2 0 0 1 2 2a2 2 0 0 1-2 2a2 2 0 0 1-2-2m-6 0a2 2 0 0 1 2-2a2 2 0 0 1 2 2a2 2 0 0 1-2 2a2 2 0 0 1-2-2m-6 0a2 2 0 0 1 2-2a2 2 0 0 1 2 2a2 2 0 0 1-2 2a2 2 0 0 1-2-2Z"/></symbol><symbol id="icon-email" viewBox="0 0 24 24"><path d="M12 22q-2.05 0-3.875-.788t-3.188-2.15q-1.362-1.362-2.15-3.187T2 12q0-2.075.788-3.888t2.15-3.174Q6.3 3.575 8.124 2.788T12 2q2.075 0 3.888.788t3.174 2.15q1.363 1.362 2.15 3.175T22 12v1.45q0 1.475-1.012 2.513T18.5 17q-.9 0-1.675-.4t-1.275-1.05q-.675.675-1.588 1.063T12 17q-2.075 0-3.538-1.463T7 12q0-2.075 1.463-3.538T12 7q2.075 0 3.538 1.463T17 12v1.45q0 .725.45 1.137T18.5 15q.6 0 1.05-.413T20 13.45V12q0-3.275-2.363-5.638T12 4Q8.725 4 6.362 6.363T4 12q0 3.275 2.363 5.638T12 20h4q.425 0 .713.288T17 21q0 .425-.288.713T16 22h-4Zm0-7q1.25 0 2.125-.875T15 12q0-1.25-.875-2.125T12 9q-1.25 0-2.125.875T9 12q0 1.25.875 2.125T12 15Z"/></symbol><symbol id="icon-folder-open" viewBox="0 0 24 24"><path d="M4 20q-.825 0-1.413-.588T2 18V6q0-.825.588-1.413T4 4h5.175q.4 0 .763.15t.637.425L12 6h8q.825 0 1.413.588T22 8H6q-.825 0-1.413.588T4 10v8l1.975-6.575q.2-.65.738-1.038T7.9 10h12.9q1.025 0 1.613.813t.312 1.762l-1.8 6q-.2.65-.738 1.038T19 20H4Z"/></symbol><symbol id="icon-folder" viewBox="0 0 24 24"><path d="M4 20q-.825 0-1.413-.588T2 18V6q0-.825.588-1.413T4 4h5.175q.4 0 .763.15t.637.425L12 6h8q.825 0 1.413.588T22 8v10q0 .825-.588 1.413T20 20H4Z"/></symbol><symbol id="icon-git" viewBox="0 0 24 24"><path d="M23.546 10.93L13.067.452a1.55 1.55 0 0 0-2.188 0L8.708 2.627l2.76 2.76a1.838 1.838 0 0 1 2.327 2.341l2.658 2.66a1.838 1.838 0 0 1 1.9 3.039a1.837 1.837 0 0 1-2.6 0a1.846 1.846 0 0 1-.404-1.996L12.86 8.955v6.525c.176.086.342.203.488.348a1.848 1.848 0 0 1 0 2.6a1.844 1.844 0 0 1-2.609 0a1.834 1.834 0 0 1 0-2.598c.182-.18.387-.316.605-.406V8.835a1.834 1.834 0 0 1-.996-2.41L7.636 3.7L.45 10.881c-.6.605-.6 1.584 0 2.189l10.48 10.477a1.545 1.545 0 0 0 2.186 0l10.43-10.43a1.544 1.544 0 0 0 0-2.187"/></symbol><symbol id="icon-github" viewBox="0 0 16 16"><path d="M8 0c4.42 0 8 3.58 8 8a8.013 8.013 0 0 1-5.45 7.59c-.4.08-.55-.17-.55-.38c0-.27.01-1.13.01-2.2c0-.75-.25-1.23-.54-1.48c1.78-.2 3.65-.88 3.65-3.95c0-.88-.31-1.59-.82-2.15c.08-.2.36-1.02-.08-2.12c0 0-.67-.22-2.2.82c-.64-.18-1.32-.27-2-.27c-.68 0-1.36.09-2 .27c-1.53-1.03-2.2-.82-2.2-.82c-.44 1.1-.16 1.92-.08 2.12c-.51.56-.82 1.28-.82 2.15c0 3.06 1.86 3.75 3.64 3.95c-.23.2-.44.55-.51 1.07c-.46.21-1.61.55-2.33-.66c-.15-.24-.6-.83-1.23-.82c-.67.01-.27.38.01.53c.34.19.73.9.82 1.13c.16.45.68 1.31 2.69.94c0 .67.01 1.3.01 1.49c0 .21-.15.45-.55.38A7.995 7.995 0 0 1 0 8c0-4.42 3.58-8 8-8Z"/></symbol><symbol id="icon-gitlab" viewBox="0 0 24 24"><path d="m23.6 9.593l-.033-.086L20.3.98a.851.851 0 0 0-.336-.405a.875.875 0 0 0-1 .054a.875.875 0 0 0-.29.44L16.47 7.818H7.537L5.332 1.07a.857.857 0 0 0-.29-.441a.875.875 0 0 0-1-.054a.859.859 0 0 0-.336.405L.433 9.502l-.032.086a6.066 6.066 0 0 0 2.012 7.01l.01.009l.03.021l4.977 3.727l2.462 1.863l1.5 1.132a1.008 1.008 0 0 0 1.22 0l1.499-1.132l2.461-1.863l5.006-3.75l.013-.01a6.068 6.068 0 0 0 2.01-7.002z"/></symbol><symbol id="icon-heart" viewBox="0 0 16 16"><path id="heart" fill-rule="evenodd" d="M8 1.314C12.438-3.248 23.534 4.735 8 15C-7.534 4.736 3.562-3.248 8 1.314z"/></symbol><symbol id="icon-html" viewBox="0 0 16 16"><path fill-rule="evenodd" d="M14 4.5V11h-1V4.5h-2A1.5 1.5 0 0 1 9.5 3V1H4a1 1 0 0 0-1 1v9H2V2a2 2 0 0 1 2-2h5.5L14 4.5Zm-9.736 7.35v3.999h-.791v-1.714H1.79v1.714H1V11.85h.791v1.626h1.682V11.85h.79Zm2.251.662v3.337h-.794v-3.337H4.588v-.662h3.064v.662H6.515Zm2.176 3.337v-2.66h.038l.952 2.159h.516l.946-2.16h.038v2.661h.715V11.85h-.8l-1.14 2.596H9.93L8.79 11.85h-.805v3.999h.706Zm4.71-.674h1.696v.674H12.61V11.85h.79v3.325Z"/></symbol><symbol id="icon-hugo" viewBox="0 0 24 24"><path d="M11.754 0a3.998 3.998 0 0 0-2.049.596L3.33 4.532a4.252 4.252 0 0 0-2.017 3.615v8.03a4.13 4.13 0 0 0 2.067 3.574l6.486 3.733a3.88 3.88 0 0 0 3.835.018l7.043-3.966a3.817 3.817 0 0 0 1.943-3.323V7.752a3.57 3.57 0 0 0-1.774-3.084L13.817.541a3.998 3.998 0 0 0-2.063-.54zm.022 1.674c.413-.006.828.1 1.2.315l7.095 4.127c.584.34.941.96.94 1.635v8.462c0 .774-.414 1.484-1.089 1.864l-7.042 3.966a2.199 2.199 0 0 1-2.179-.01l-6.485-3.734a2.447 2.447 0 0 1-1.228-2.123v-8.03c0-.893.461-1.72 1.221-2.19l6.376-3.935a2.323 2.323 0 0 1 1.19-.347zm-4.7 3.844V18.37h2.69v-5.62h4.46v5.62h2.696V5.518h-2.696v4.681h-4.46V5.518Z"/></symbol><symbol id="icon-iconify" viewBox="0 0 24 24"><path d="M12 19.5c3.75 0 7.159-3.379 6.768-4.125c-.393-.75-2.268 1.875-6.768 1.875s-6-2.625-6.375-1.875S8.25 19.5 12 19.5zm4.125-12c.623 0 1.125.502 1.125 1.125v1.5c0 .623-.502 1.125-1.125 1.125A1.123 1.123 0 0 1 15 10.125v-1.5c0-.623.502-1.125 1.125-1.125zm-8.25 0C8.498 7.5 9 8.002 9 8.625v1.5c0 .623-.502 1.125-1.125 1.125a1.123 1.123 0 0 1-1.125-1.125v-1.5c0-.623.502-1.125 1.125-1.125zM12 0C5.381 0 0 5.381 0 12s5.381 12 12 12s12-5.381 12-12S18.619 0 12 0zm0 1.5c5.808 0 10.5 4.692 10.5 10.5S17.808 22.5 12 22.5S1.5 17.808 1.5 12S6.192 1.5 12 1.5Z"/></symbol><symbol id="icon-ini" viewBox="0 0 32 32"><path d="m23.265 24.381l.9-.894c4.164.136 4.228-.01 4.411-.438l1.144-2.785l.085-.264l-.093-.231c-.049-.122-.2-.486-2.8-2.965V15.5c3-2.89 2.936-3.038 2.765-3.461l-1.139-2.814c-.171-.422-.236-.587-4.37-.474l-.9-.93a20.166 20.166 0 0 0-.141-4.106l-.116-.263l-2.974-1.3c-.438-.2-.592-.272-3.4 2.786l-1.262-.019c-2.891-3.086-3.028-3.03-3.461-2.855L9.149 3.182c-.433.175-.586.237-.418 4.437l-.893.89c-4.162-.136-4.226.012-4.407.438l-1.146 2.786l-.09.267l.094.232c.049.12.194.48 2.8 2.962v1.3c-3 2.89-2.935 3.038-2.763 3.462l1.138 2.817c.174.431.236.584 4.369.476l.9.935a20.243 20.243 0 0 0 .137 4.1l.116.265l2.993 1.308c.435.182.586.247 3.386-2.8l1.262.016c2.895 3.09 3.043 3.03 3.466 2.859l2.759-1.115c.436-.173.588-.234.413-4.436Zm-11.858-6.524a4.957 4.957 0 1 1 6.488 2.824a5.014 5.014 0 0 1-6.488-2.824Z"/></symbol><symbol id="icon-js" viewBox="0 0 16 16"><path fill-rule="evenodd" d="M14 4.5V14a2 2 0 0 1-2 2H8v-1h4a1 1 0 0 0 1-1V4.5h-2A1.5 1.5 0 0 1 9.5 3V1H4a1 1 0 0 0-1 1v9H2V2a2 2 0 0 1 2-2h5.5L14 4.5ZM3.186 15.29a1.176 1.176 0 0 1-.111-.449h.765a.578.578 0 0 0 .255.384c.07.049.153.087.249.114c.095.028.202.041.319.041c.164 0 .302-.023.413-.07a.559.559 0 0 0 .255-.193a.507.507 0 0 0 .085-.29a.387.387 0 0 0-.153-.326c-.101-.08-.255-.144-.462-.193l-.619-.143a1.72 1.72 0 0 1-.539-.214a1.001 1.001 0 0 1-.351-.367a1.068 1.068 0 0 1-.123-.524c0-.244.063-.457.19-.639c.127-.181.303-.322.528-.422c.224-.1.483-.149.776-.149c.305 0 .564.05.78.152c.216.102.383.239.5.41c.12.17.186.359.2.566h-.75a.56.56 0 0 0-.12-.258a.624.624 0 0 0-.247-.181a.923.923 0 0 0-.369-.068c-.217 0-.388.05-.513.152a.472.472 0 0 0-.184.384c0 .121.048.22.143.3a.97.97 0 0 0 .405.175l.62.143c.218.05.406.12.566.211c.16.09.285.21.375.358c.09.148.135.335.135.56c0 .247-.063.466-.188.656a1.216 1.216 0 0 1-.539.439c-.234.105-.52.158-.858.158c-.254 0-.476-.03-.665-.09a1.404 1.404 0 0 1-.478-.252a1.13 1.13 0 0 1-.29-.375Zm-3.104-.033A1.32 1.32 0 0 1 0 14.791h.765a.576.576 0 0 0 .073.27a.499.499 0 0 0 .454.246c.19 0 .33-.055.422-.164c.092-.11.138-.265.138-.466v-2.745h.79v2.725c0 .44-.119.774-.357 1.005c-.236.23-.564.345-.984.345a1.59 1.59 0 0 1-.569-.094a1.145 1.145 0 0 1-.407-.266a1.14 1.14 0 0 1-.243-.39Z"/></symbol><symbol id="icon-json" viewBox="0 0 16 16"><path fill-rule="evenodd" d="M14 4.5V11h-1V4.5h-2A1.5 1.5 0 0 1 9.5 3V1H4a1 1 0 0 0-1 1v9H2V2a2 2 0 0 1 2-2h5.5L14 4.5ZM4.151 15.29a1.176 1.176 0 0 1-.111-.449h.764a.578.578 0 0 0 .255.384c.07.049.154.087.25.114c.095.028.201.041.319.041c.164 0 .301-.023.413-.07a.559.559 0 0 0 .255-.193a.507.507 0 0 0 .084-.29a.387.387 0 0 0-.152-.326c-.101-.08-.256-.144-.463-.193l-.618-.143a1.72 1.72 0 0 1-.539-.214a1.001 1.001 0 0 1-.352-.367a1.068 1.068 0 0 1-.123-.524c0-.244.064-.457.19-.639c.128-.181.304-.322.528-.422c.225-.1.484-.149.777-.149c.304 0 .564.05.779.152c.217.102.384.239.5.41c.12.17.186.359.2.566h-.75a.56.56 0 0 0-.12-.258a.624.624 0 0 0-.246-.181a.923.923 0 0 0-.37-.068c-.216 0-.387.05-.512.152a.472.472 0 0 0-.185.384c0 .121.048.22.144.3a.97.97 0 0 0 .404.175l.621.143c.217.05.406.12.566.211a1 1 0 0 1 .375.358c.09.148.135.335.135.56c0 .247-.063.466-.188.656a1.216 1.216 0 0 1-.539.439c-.234.105-.52.158-.858.158c-.254 0-.476-.03-.665-.09a1.404 1.404 0 0 1-.478-.252a1.13 1.13 0 0 1-.29-.375Zm-3.104-.033a1.32 1.32 0 0 1-.082-.466h.764a.576.576 0 0 0 .074.27a.499.499 0 0 0 .454.246c.19 0 .33-.055.422-.164c.091-.11.137-.265.137-.466v-2.745h.791v2.725c0 .44-.119.774-.357 1.005c-.237.23-.565.345-.985.345a1.59 1.59 0 0 1-.568-.094a1.145 1.145 0 0 1-.407-.266a1.14 1.14 0 0 1-.243-.39Zm9.091-1.585v.522c0 .256-.039.47-.117.641a.862.862 0 0 1-.322.387a.877.877 0 0 1-.47.126a.883.883 0 0 1-.47-.126a.87.87 0 0 1-.32-.387a1.55 1.55 0 0 1-.117-.641v-.522c0-.258.039-.471.117-.641a.87.87 0 0 1 .32-.387a.868.868 0 0 1 .47-.129c.177 0 .333.043.47.129a.862.862 0 0 1 .322.387c.078.17.117.383.117.641Zm.803.519v-.513c0-.377-.069-.701-.205-.973a1.46 1.46 0 0 0-.59-.63c-.253-.146-.559-.22-.916-.22c-.356 0-.662.074-.92.22a1.441 1.441 0 0 0-.589.628c-.137.271-.205.596-.205.975v.513c0 .375.068.699.205.973c.137.271.333.48.589.626c.258.145.564.217.92.217c.357 0 .663-.072.917-.217c.256-.146.452-.355.589-.626c.136-.274.205-.598.205-.973Zm1.29-.935v2.675h-.746v-3.999h.662l1.752 2.66h.032v-2.66h.75v4h-.656l-1.761-2.676h-.032Z"/></symbol><symbol id="icon-leetcode" viewBox="0 0 24 24"><path d="M13.483 0a1.374 1.374 0 0 0-.961.438L7.116 6.226l-3.854 4.126a5.266 5.266 0 0 0-1.209 2.104a5.35 5.35 0 0 0-.125.513a5.527 5.527 0 0 0 .062 2.362a5.83 5.83 0 0 0 .349 1.017a5.938 5.938 0 0 0 1.271 1.818l4.277 4.193l.039.038c2.248 2.165 5.852 2.133 8.063-.074l2.396-2.392c.54-.54.54-1.414.003-1.955a1.378 1.378 0 0 0-1.951-.003l-2.396 2.392a3.021 3.021 0 0 1-4.205.038l-.02-.019l-4.276-4.193c-.652-.64-.972-1.469-.948-2.263a2.68 2.68 0 0 1 .066-.523a2.545 2.545 0 0 1 .619-1.164L9.13 8.114c1.058-1.134 3.204-1.27 4.43-.278l3.501 2.831c.593.48 1.461.387 1.94-.207a1.384 1.384 0 0 0-.207-1.943l-3.5-2.831c-.8-.647-1.766-1.045-2.774-1.202l2.015-2.158A1.384 1.384 0 0 0 13.483 0zm-2.866 12.815a1.38 1.38 0 0 0-1.38 1.382a1.38 1.38 0 0 0 1.38 1.382H20.79a1.38 1.38 0 0 0 1.38-1.382a1.38 1.38 0 0 0-1.38-1.382z"/></symbol><symbol id="icon-linkedin" viewBox="0 0 16 16"><path d="M0 1.146C0 .513.526 0 1.175 0h13.65C15.474 0 16 .513 16 1.146v13.708c0 .633-.526 1.146-1.175 1.146H1.175C.526 16 0 15.487 0 14.854V1.146zm4.943 12.248V6.169H2.542v7.225h2.401zm-1.2-8.212c.837 0 1.358-.554 1.358-1.248c-.015-.709-.52-1.248-1.342-1.248c-.822 0-1.359.54-1.359 1.248c0 .694.521 1.248 1.327 1.248h.016zm4.908 8.212V9.359c0-.216.016-.432.08-.586c.173-.431.568-.878 1.232-.878c.869 0 1.216.662 1.216 1.634v3.865h2.401V9.25c0-2.22-1.184-3.252-2.764-3.252c-1.274 0-1.845.7-2.165 1.193v.025h-.016a5.54 5.54 0 0 1 .016-.025V6.169h-2.4c.03.678 0 7.225 0 7.225h2.4z"/></symbol><symbol id="icon-location" viewBox="0 0 24 24"><path d="M12 12q.825 0 1.413-.588T14 10q0-.825-.588-1.413T12 8q-.825 0-1.413.588T10 10q0 .825.588 1.413T12 12Zm0 7.35q3.05-2.8 4.525-5.088T18 10.2q0-2.725-1.738-4.462T12 4Q9.475 4 7.737 5.738T6 10.2q0 1.775 1.475 4.063T12 19.35ZM12 22q-4.025-3.425-6.012-6.362T4 10.2q0-3.75 2.413-5.975T12 2q3.175 0 5.588 2.225T20 10.2q0 2.5-1.988 5.438T12 22Zm0-11.8Z"/></symbol><symbol id="icon-markdown" viewBox="0 0 24 24"><path d="M22.27 19.385H1.73A1.73 1.73 0 0 1 0 17.655V6.345a1.73 1.73 0 0 1 1.73-1.73h20.54A1.73 1.73 0 0 1 24 6.345v11.308a1.73 1.73 0 0 1-1.73 1.731zM5.769 15.923v-4.5l2.308 2.885l2.307-2.885v4.5h2.308V8.078h-2.308l-2.307 2.885l-2.308-2.885H3.46v7.847zM21.232 12h-2.309V8.077h-2.307V12h-2.308l3.461 4.039z"/></symbol><symbol id="icon-navbar" viewBox="0 0 20 20"><path d="M4 12a2 2 0 1 1 0-4a2 2 0 0 1 0 4zm6 0a2 2 0 1 1 0-4a2 2 0 0 1 0 4zm6 0a2 2 0 1 1 0-4a2 2 0 0 1 0 4z"/></symbol><symbol id="icon-note-edit" viewBox="0 0 24 24"><path d="M20.125 15L18 12.875l.725-.725q.275-.275.7-.275t.7.275l.725.725q.275.275.275.7t-.275.7l-.725.725ZM12 21v-2.125l5.3-5.3l2.125 2.125l-5.3 5.3H12Zm-9-5v-2h7v2H3Zm0-4v-2h11v2H3Zm0-4V6h11v2H3Z"/></symbol><symbol id="icon-note" viewBox="0 0 24 24"><path d="M5 19h9v-5h5V5H5v14Zm0 2q-.825 0-1.413-.588T3 19V5q0-.825.588-1.413T5 3h14q.825 0 1.413.588T21 5v10l-6 6H5Zm2-7v-2h5v2H7Zm0-4V8h10v2H7Zm-2 9V5v14Z"/></symbol><symbol id="icon-pdf" viewBox="0 0 16 16"><path fill-rule="evenodd" d="M14 4.5V14a2 2 0 0 1-2 2h-1v-1h1a1 1 0 0 0 1-1V4.5h-2A1.5 1.5 0 0 1 9.5 3V1H4a1 1 0 0 0-1 1v9H2V2a2 2 0 0 1 2-2h5.5L14 4.5ZM1.6 11.85H0v3.999h.791v-1.342h.803c.287 0 .531-.057.732-.173c.203-.117.358-.275.463-.474a1.42 1.42 0 0 0 .161-.677c0-.25-.053-.476-.158-.677a1.176 1.176 0 0 0-.46-.477c-.2-.12-.443-.179-.732-.179Zm.545 1.333a.795.795 0 0 1-.085.38a.574.574 0 0 1-.238.241a.794.794 0 0 1-.375.082H.788V12.48h.66c.218 0 .389.06.512.181c.123.122.185.296.185.522Zm1.217-1.333v3.999h1.46c.401 0 .734-.08.998-.237a1.45 1.45 0 0 0 .595-.689c.13-.3.196-.662.196-1.084c0-.42-.065-.778-.196-1.075a1.426 1.426 0 0 0-.589-.68c-.264-.156-.599-.234-1.005-.234H3.362Zm.791.645h.563c.248 0 .45.05.609.152a.89.89 0 0 1 .354.454c.079.201.118.452.118.753a2.3 2.3 0 0 1-.068.592a1.14 1.14 0 0 1-.196.422a.8.8 0 0 1-.334.252a1.298 1.298 0 0 1-.483.082h-.563v-2.707Zm3.743 1.763v1.591h-.79V11.85h2.548v.653H7.896v1.117h1.606v.638H7.896Z"/></symbol><symbol id="icon-perl" viewBox="0 0 32 32"><path d="M29.25 13.8a6.888 6.888 0 0 0-.742-2.268a1.011 1.011 0 0 0-.172-.233a9.471 9.471 0 0 1-1.725-2.4a8.632 8.632 0 0 0-1.395-2.382A6.906 6.906 0 0 1 24.1 4.644a4.572 4.572 0 0 0-2.11-2.917a1.009 1.009 0 0 0-.1-.054a8.886 8.886 0 0 0-1.3-.468a1.022 1.022 0 0 0-.263-.035a1.009 1.009 0 0 0-.2.021a5.607 5.607 0 0 1-.807.107c-.05 0-.1-.006-.149-.006a2.842 2.842 0 0 0-1.416.453c-.094.052-.188.106-.284.149q-.041.018-.078.039a1.637 1.637 0 0 1-.327.067a3.109 3.109 0 0 0-.772.194a1 1 0 0 0-.508.483a2.184 2.184 0 0 1-.469.5a4.382 4.382 0 0 0-.762.823a.964.964 0 0 0-.116.234a4.687 4.687 0 0 1-1.574 2.2a6.471 6.471 0 0 0-.8.613a2.734 2.734 0 0 0-.627-1.634a1.402 1.402 0 0 0-.053-.056v-.014a2.378 2.378 0 0 0-.135-.586a1 1 0 0 0-.132-.236a5.167 5.167 0 0 0-1.607-1.408a.988.988 0 0 0-.346-.119a1.5 1.5 0 0 1-.148-.077a2.06 2.06 0 0 0-1-.311a1.476 1.476 0 0 0-.681.166a.987.987 0 0 0-.274.206a1.328 1.328 0 0 1-.125.063a1.9 1.9 0 0 0-.908.778a2.539 2.539 0 0 0-.541.106a1.656 1.656 0 0 1-.383.057a2.3 2.3 0 0 0-1.5.545l-.106.1a2.533 2.533 0 0 0-1 2.525a1.08 1.08 0 0 0 .068.165a2.294 2.294 0 0 0 1.879 1.161c-.1.238-.2.473-.314.7a1.009 1.009 0 0 0-.087.293A11.052 11.052 0 0 0 4 12.039c0 .02 0 .04.007.06a5.278 5.278 0 0 1 .041.547a2.926 2.926 0 0 0 .931 2.4l.052.039l.008.031a2.8 2.8 0 0 0 .151.447a1.185 1.185 0 0 0 .632.617a1.289 1.289 0 0 0 .248.571a1 1 0 0 0 .332.279a2.453 2.453 0 0 0 .465.176l.064.018a.976.976 0 0 0 .192.171a5.879 5.879 0 0 1 .75.605a1.13 1.13 0 0 0 1.351.427a1.5 1.5 0 0 0 .765.215a1.421 1.421 0 0 0 .624-.145l.114-.026c.024.408.033.817.028 1.223a1.043 1.043 0 0 0 .026.242a10.744 10.744 0 0 1 .266 1.828a.931.931 0 0 0 .031.2a8.492 8.492 0 0 1 .268 1.815c0 .031 0 .063.008.094a6.083 6.083 0 0 1-.61 3.575a.994.994 0 0 0-.089.261a1.093 1.093 0 0 0-.234.079l-.05.022a2.013 2.013 0 0 0-1.2 1.065a1.322 1.322 0 0 0 .074 1.054a1 1 0 0 0 .324.371a3.547 3.547 0 0 0 3.509.3a1.546 1.546 0 0 0 .829-1.653l-.005-.067a.989.989 0 0 0 .056-.158a11.186 11.186 0 0 0 .288-2.068a8.939 8.939 0 0 1 .259-1.822a4.727 4.727 0 0 0 .389-1.588l.042.048a12.661 12.661 0 0 0 1.255 1.129a10.3 10.3 0 0 1 1.1.989l-.011.038a.532.532 0 0 1-.342.359l-.049.017a1.921 1.921 0 0 0-1.184 1.334a1.313 1.313 0 0 0 .452 1.234a1 1 0 0 0 .441.222a4.908 4.908 0 0 0 2.735-.181a1.556 1.556 0 0 0 .266-.124a1.411 1.411 0 0 0 .97.372a2.326 2.326 0 0 0 1-.274c.049-.023.1-.045.14-.062a1 1 0 0 0 .637-.864a4.553 4.553 0 0 0-.468-2.343a1.56 1.56 0 0 0-.51-.6a10.8 10.8 0 0 1 1.3-2.15a2.193 2.193 0 0 0 .451-2.026a2.519 2.519 0 0 1-.043-.394a1.046 1.046 0 0 0 0-.148a5.756 5.756 0 0 1 .012-1.279a7.161 7.161 0 0 0 .951 1.793a7.892 7.892 0 0 1 .133 1.1a10.733 10.733 0 0 0 .133 1.186a9.36 9.36 0 0 1-.224 3.9a1 1 0 0 0-.032.34a.98.98 0 0 0-.1.179a2.238 2.238 0 0 0-.312 1.235a1.007 1.007 0 0 0 .039.2a1.315 1.315 0 0 0 1.328.963c.086 0 .177-.006.268-.014h.019l.038.013a2.109 2.109 0 0 0 2.517-1.088a1 1 0 0 0 .058-.735a5.285 5.285 0 0 1-.208-1.027a1.011 1.011 0 0 0-.046-.217a6.47 6.47 0 0 1-.221-3.22a1.112 1.112 0 0 0 .015-.114a3.907 3.907 0 0 1 .074-.443a2.738 2.738 0 0 0-.193-2.1a4.339 4.339 0 0 1 .021-.476c.011-.147.023-.3.027-.463a1.59 1.59 0 0 0 .862-.851a12.83 12.83 0 0 0 .947-2.23a1.719 1.719 0 0 0 .172-1.185a1.234 1.234 0 0 0 .111-.251a1.467 1.467 0 0 0-.215-1.236Zm-10.387 8.968c-.026 0-.053-.008-.08-.01h-.024a2.748 2.748 0 0 1-.236-.323a8.942 8.942 0 0 0-.178-.258a2.253 2.253 0 0 0 .208-.234a1.255 1.255 0 0 0 .629-.321a3.186 3.186 0 0 1-.319 1.146Z"/><path d="M19.289 2.3c-.548-.065-.961.3-1.419.506c-.368.206-.815.152-1.185.309c-.282.579-.941.908-1.3 1.443a5.7 5.7 0 0 1-1.942 2.694a5.464 5.464 0 0 0-2.368 3.394c-.145.3-.122.746-.277 1c-.511.143-.239-.516-.3-.825c-.074-.47.341-.77.373-1.226a1.834 1.834 0 0 0 .209-1.053c-.056-.814.189-1.807-.393-2.477c-.349-.2-.239-.623-.366-.947a4.214 4.214 0 0 0-1.3-1.139c-.419-.041-.806-.542-1.232-.323c-.266.309-.763.305-.922.713c-.1.516-.688.374-1.068.5c-.488.185-1.118.006-1.518.382c-.411.41-1.034.961-.835 1.606c.457.882 1.645.438 2.317.974a17.99 17.99 0 0 1-.727 1.779a10.051 10.051 0 0 0-.044 2.332c.123.773-.083 1.772.606 2.319c.38.137.357.572.5.887c.134.29.427-.113.543.193c.338.184.037.561.22.8c.263.137.639.128.822.426a6.844 6.844 0 0 1 .975.806c.23.467.531-.454.783-.109c.17.285.506.522.819.285a2.993 2.993 0 0 0 1.324-.556a18.033 18.033 0 0 1 .171 2.718a11.733 11.733 0 0 1 .29 2a9.409 9.409 0 0 1 .3 2.03a7.111 7.111 0 0 1-.709 4.16a1.012 1.012 0 0 1-.807.8c-.291.13-.9.366-.692.776a2.549 2.549 0 0 0 2.52.214c.51-.243.073-.858.334-1.226c.343-1.3.174-2.691.575-3.985a3.762 3.762 0 0 0 .3-2.1c.079-.44-.105-.969.187-1.329a1.813 1.813 0 0 1 .483-1.2a14.762 14.762 0 0 0 .144-2.026a3.214 3.214 0 0 1 1.267-.127c.018.375-.272.812-.19 1.234A1.948 1.948 0 0 1 15.5 20.3a2.849 2.849 0 0 0 .168 2.308c.782.839 1.8 1.432 2.536 2.327c.314.205.2.517.038.784a1.528 1.528 0 0 1-.987 1.034c-.308.121-.806.566-.442.882a3.906 3.906 0 0 0 2.178-.144c.476-.171.3-.738.488-1.088c.3.233.423.765.711 1.069c.3.433.807.073 1.156-.062a3.549 3.549 0 0 0-.372-1.842c-.167-.378-.8-.385-.77-.852a11.761 11.761 0 0 1 1.712-3c.51-.479.13-1.191.158-1.8a6.765 6.765 0 0 1 1.084-4.416a15.889 15.889 0 0 0 .692 2.14a6.23 6.23 0 0 0 1.1 2.246c.237.811.176 1.71.331 2.551a10.44 10.44 0 0 1-.242 4.347c.04.518-.457.9-.415 1.408c.14.469.7.093.99.29a1.11 1.11 0 0 0 1.324-.572a6.212 6.212 0 0 1-.247-1.223a7.454 7.454 0 0 1-.255-3.719c.046-.669.457-1.5-.073-2.072c-.148-.619.1-1.285-.049-1.915a12.877 12.877 0 0 1-.122-4.933c.093-.227.013-.649.247-.775a1.851 1.851 0 0 1 .315 1.232a3.7 3.7 0 0 1 .079 2.081c-.424.531-.163 1.248-.109 1.85c.068.422.516.118.589-.144a11.851 11.851 0 0 0 .944-2.241c.269-.356.014-.77 0-1.142c.413-.049.256-.506.035-.7a5.93 5.93 0 0 0-.667-2.2a10.464 10.464 0 0 1-1.941-2.723c-.528-1.639-2.042-2.726-2.556-4.379a3.556 3.556 0 0 0-1.652-2.317a7.881 7.881 0 0 0-1.156-.42a6.5 6.5 0 0 1-1.031.13Zm.4 14.66a38.907 38.907 0 0 1 .5 4.291a4.175 4.175 0 0 1-.76 2.517c-.12.425-.486.012-.751-.016c-.643-.018-.882-.683-1.232-1.107c-.36-.344-.1-.8.133-1.131c.252-.179.35-.579.708-.548c.4-.007.316-.487.26-.743c.238-.362.092-.892.328-1.283c.419-.182.294-.82.442-1.18c.115-.256.017-.749.334-.854c.037-.006.049.012.042.052Z"/></symbol><symbol id="icon-phone" viewBox="0 0 24 24"><path d="M10 20h4v-1h-4v1Zm-3 3q-.825 0-1.413-.588T5 21V3q0-.825.588-1.413T7 1h10q.825 0 1.413.588T19 3v18q0 .825-.588 1.413T17 23H7Zm0-5v3h10v-3H7Zm0-2h10V6H7v10ZM7 4h10V3H7v1Zm0 14v3v-3ZM7 4V3v1Z"/></symbol><symbol id="icon-powershell" viewBox="0 0 24 24"><path d="M23.181 2.974c.568 0 .923.463.792 1.035l-3.659 15.982c-.13.572-.697 1.035-1.265 1.035H.819c-.568 0-.923-.463-.792-1.035L3.686 4.009c.13-.572.697-1.035 1.265-1.035zm-8.375 9.346c.251-.394.227-.905-.09-1.243L9.122 5.125c-.38-.404-1.037-.407-1.466-.003c-.429.402-.468 1.056-.088 1.46l4.662 4.96v.11l-7.42 5.374c-.45.327-.533.977-.187 1.453c.346.476.991.597 1.44.27l8.229-5.91c.28-.196.438-.365.514-.52zm-2.796 4.399a.928.928 0 0 0-.934.923c0 .51.418.923.934.923h4.433a.928.928 0 0 0 .934-.923a.928.928 0 0 0-.934-.923z"/></symbol><symbol id="icon-python" viewBox="0 0 24 24"><path d="m14.25.18l.9.2l.73.26l.59.3l.45.32l.34.34l.25.34l.16.33l.1.3l.04.26l.02.2l-.01.13V8.5l-.05.63l-.13.55l-.21.46l-.26.38l-.3.31l-.33.25l-.35.19l-.35.14l-.33.1l-.3.07l-.26.04l-.21.02H8.77l-.69.05l-.59.14l-.5.22l-.41.27l-.33.32l-.27.35l-.2.36l-.15.37l-.1.35l-.07.32l-.04.27l-.02.21v3.06H3.17l-.21-.03l-.28-.07l-.32-.12l-.35-.18l-.36-.26l-.36-.36l-.35-.46l-.32-.59l-.28-.73l-.21-.88l-.14-1.05l-.05-1.23l.06-1.22l.16-1.04l.24-.87l.32-.71l.36-.57l.4-.44l.42-.33l.42-.24l.4-.16l.36-.1l.32-.05l.24-.01h.16l.06.01h8.16v-.83H6.18l-.01-2.75l-.02-.37l.05-.34l.11-.31l.17-.28l.25-.26l.31-.23l.38-.2l.44-.18l.51-.15l.58-.12l.64-.1l.71-.06l.77-.04l.84-.02l1.27.05zm-6.3 1.98l-.23.33l-.08.41l.08.41l.23.34l.33.22l.41.09l.41-.09l.33-.22l.23-.34l.08-.41l-.08-.41l-.23-.33l-.33-.22l-.41-.09l-.41.09zm13.09 3.95l.28.06l.32.12l.35.18l.36.27l.36.35l.35.47l.32.59l.28.73l.21.88l.14 1.04l.05 1.23l-.06 1.23l-.16 1.04l-.24.86l-.32.71l-.36.57l-.4.45l-.42.33l-.42.24l-.4.16l-.36.09l-.32.05l-.24.02l-.16-.01h-8.22v.82h5.84l.01 2.76l.02.36l-.05.34l-.11.31l-.17.29l-.25.25l-.31.24l-.38.2l-.44.17l-.51.15l-.58.13l-.64.09l-.71.07l-.77.04l-.84.01l-1.27-.04l-1.07-.14l-.9-.2l-.73-.25l-.59-.3l-.45-.33l-.34-.34l-.25-.34l-.16-.33l-.1-.3l-.04-.25l-.02-.2l.01-.13v-5.34l.05-.64l.13-.54l.21-.46l.26-.38l.3-.32l.33-.24l.35-.2l.35-.14l.33-.1l.3-.06l.26-.04l.21-.02l.13-.01h5.84l.69-.05l.59-.14l.5-.21l.41-.28l.33-.32l.27-.35l.2-.36l.15-.36l.1-.35l.07-.32l.04-.28l.02-.21V6.07h2.09l.14.01zm-6.47 14.25l-.23.33l-.08.41l.08.41l.23.33l.33.23l.41.08l.41-.08l.33-.23l.23-.33l.08-.41l-.08-.41l-.23-.33l-.33-.23l-.41-.08l-.41.08z"/></symbol><symbol id="icon-sass" viewBox="0 0 24 24"><path d="M12 0c6.627 0 12 5.373 12 12s-5.373 12-12 12S0 18.627 0 12S5.373 0 12 0zM9.615 15.998c.175.645.156 1.248-.024 1.792l-.065.18c-.024.061-.052.12-.078.176c-.14.29-.326.56-.555.81c-.698.759-1.672 1.047-2.09.805c-.45-.262-.226-1.335.584-2.19c.871-.918 2.12-1.509 2.12-1.509v-.003l.108-.061zm9.911-10.861c-.542-2.133-4.077-2.834-7.422-1.645c-1.989.707-4.144 1.818-5.693 3.267C4.568 8.48 4.275 9.98 4.396 10.607c.427 2.211 3.457 3.657 4.703 4.73v.006c-.367.18-3.056 1.529-3.686 2.925c-.675 1.47.105 2.521.615 2.655c1.575.436 3.195-.36 4.065-1.649c.84-1.261.766-2.881.404-3.676c.496-.135 1.08-.195 1.83-.104c2.101.24 2.521 1.56 2.43 2.1c-.09.539-.523.854-.674.944c-.15.091-.195.12-.181.181c.015.09.091.09.21.075c.165-.03 1.096-.45 1.141-1.471c.045-1.29-1.186-2.729-3.375-2.7c-.9.016-1.471.091-1.875.256a.362.362 0 0 0-.105-.105c-1.35-1.455-3.855-2.475-3.75-4.41c.03-.705.285-2.564 4.8-4.814c3.705-1.846 6.661-1.335 7.171-.21c.733 1.604-1.576 4.59-5.431 5.024c-1.47.165-2.235-.404-2.431-.615c-.209-.225-.239-.24-.314-.194c-.12.06-.045.255 0 .375c.12.3.585.825 1.396 1.095c.704.225 2.43.359 4.5-.45c2.324-.899 4.139-3.405 3.614-5.505l.073.067z"/></symbol><symbol id="icon-search" viewBox="0 0 24 24"><path d="m18.9 20.3l-5.6-5.6q-.75.6-1.725.95T9.5 16q-2.725 0-4.612-1.888T3 9.5q0-2.725 1.888-4.612T9.5 3q2.725 0 4.612 1.888T16 9.5q0 1.1-.35 2.075T14.7 13.3l5.625 5.625q.275.275.275.675t-.3.7q-.275.275-.7.275t-.7-.275ZM9.5 14q1.875 0 3.188-1.313T14 9.5q0-1.875-1.313-3.188T9.5 5Q7.625 5 6.312 6.313T5 9.5q0 1.875 1.313 3.188T9.5 14Z"/></symbol><symbol id="icon-shell" viewBox="0 0 32 32"><path d="M29.4 27.6H2.5V4.5h26.9Zm-25.9-1h24.9V5.5H3.5Z"/><path d="m6.077 19.316l-.555-.832l4.844-3.229l-4.887-4.071l.641-.768l5.915 4.928l-5.958 3.972zM12.7 18.2h7.8v1h-7.8zM2.5 5.5h26.9v1.9H2.5z"/></symbol><symbol id="icon-sidebar" viewBox="0 0 24 24"><path d="M4 18q-.425 0-.713-.288T3 17q0-.425.288-.713T4 16h16q.425 0 .713.288T21 17q0 .425-.288.713T20 18H4Zm0-5q-.425 0-.713-.288T3 12q0-.425.288-.713T4 11h16q.425 0 .713.288T21 12q0 .425-.288.713T20 13H4Zm0-5q-.425 0-.713-.288T3 7q0-.425.288-.713T4 6h16q.425 0 .713.288T21 7q0 .425-.288.713T20 8H4Z"/></symbol><symbol id="icon-telegram" viewBox="0 0 24 24"><path d="M11.944 0A12 12 0 0 0 0 12a12 12 0 0 0 12 12a12 12 0 0 0 12-12A12 12 0 0 0 12 0a12 12 0 0 0-.056 0zm4.962 7.224c.1-.002.321.023.465.14a.506.506 0 0 1 .171.325c.016.093.036.306.02.472c-.18 1.898-.962 6.502-1.36 8.627c-.168.9-.499 1.201-.82 1.23c-.696.065-1.225-.46-1.9-.902c-1.056-.693-1.653-1.124-2.678-1.8c-1.185-.78-.417-1.21.258-1.91c.177-.184 3.247-2.977 3.307-3.23c.007-.032.014-.15-.056-.212s-.174-.041-.249-.024c-.106.024-1.793 1.14-5.061 3.345c-.48.33-.913.49-1.302.48c-.428-.008-1.252-.241-1.865-.44c-.752-.245-1.349-.374-1.297-.789c.027-.216.325-.437.893-.663c3.498-1.524 5.83-2.529 6.998-3.014c3.332-1.386 4.025-1.627 4.476-1.635z"/></symbol><symbol id="icon-tmux" viewBox="0 0 24 24"><path d="M24 2.251V10.5H12.45V0h9.3A2.251 2.251 0 0 1 24 2.251zM12.45 11.4H24v10.5h-.008A2.25 2.25 0 0 1 21.75 24H2.25a2.247 2.247 0 0 1-2.242-2.1H0V2.251A2.251 2.251 0 0 1 2.25 0h9.3v21.6h.9V11.4zm11.242 10.5H.308a1.948 1.948 0 0 0 1.942 1.8h19.5a1.95 1.95 0 0 0 1.942-1.8z"/></symbol><symbol id="icon-typescript" viewBox="0 0 24 24"><path d="M1.125 0C.502 0 0 .502 0 1.125v21.75C0 23.498.502 24 1.125 24h21.75c.623 0 1.125-.502 1.125-1.125V1.125C24 .502 23.498 0 22.875 0zm17.363 9.75c.612 0 1.154.037 1.627.111a6.38 6.38 0 0 1 1.306.34v2.458a3.95 3.95 0 0 0-.643-.361a5.093 5.093 0 0 0-.717-.26a5.453 5.453 0 0 0-1.426-.2c-.3 0-.573.028-.819.086a2.1 2.1 0 0 0-.623.242c-.17.104-.3.229-.393.374a.888.888 0 0 0-.14.49c0 .196.053.373.156.529c.104.156.252.304.443.444s.423.276.696.41c.273.135.582.274.926.416c.47.197.892.407 1.266.628c.374.222.695.473.963.753c.268.279.472.598.614.957c.142.359.214.776.214 1.253c0 .657-.125 1.21-.373 1.656a3.033 3.033 0 0 1-1.012 1.085a4.38 4.38 0 0 1-1.487.596c-.566.12-1.163.18-1.79.18a9.916 9.916 0 0 1-1.84-.164a5.544 5.544 0 0 1-1.512-.493v-2.63a5.033 5.033 0 0 0 3.237 1.2c.333 0 .624-.03.872-.09c.249-.06.456-.144.623-.25c.166-.108.29-.234.373-.38a1.023 1.023 0 0 0-.074-1.089a2.12 2.12 0 0 0-.537-.5a5.597 5.597 0 0 0-.807-.444a27.72 27.72 0 0 0-1.007-.436c-.918-.383-1.602-.852-2.053-1.405c-.45-.553-.676-1.222-.676-2.005c0-.614.123-1.141.369-1.582c.246-.441.58-.804 1.004-1.089a4.494 4.494 0 0 1 1.47-.629a7.536 7.536 0 0 1 1.77-.201zm-15.113.188h9.563v2.166H9.506v9.646H6.789v-9.646H3.375z"/></symbol><symbol id="icon-website" viewBox="0 0 24 24"><path d="M16.36 14c.08-.66.14-1.32.14-2c0-.68-.06-1.34-.14-2h3.38c.16.64.26 1.31.26 2s-.1 1.36-.26 2m-5.15 5.56c.6-1.11 1.06-2.31 1.38-3.56h2.95a8.03 8.03 0 0 1-4.33 3.56M14.34 14H9.66c-.1-.66-.16-1.32-.16-2c0-.68.06-1.35.16-2h4.68c.09.65.16 1.32.16 2c0 .68-.07 1.34-.16 2M12 19.96c-.83-1.2-1.5-2.53-1.91-3.96h3.82c-.41 1.43-1.08 2.76-1.91 3.96M8 8H5.08A7.923 7.923 0 0 1 9.4 4.44C8.8 5.55 8.35 6.75 8 8m-2.92 8H8c.35 1.25.8 2.45 1.4 3.56A8.008 8.008 0 0 1 5.08 16m-.82-2C4.1 13.36 4 12.69 4 12s.1-1.36.26-2h3.38c-.08.66-.14 1.32-.14 2c0 .68.06 1.34.14 2M12 4.03c.83 1.2 1.5 2.54 1.91 3.97h-3.82c.41-1.43 1.08-2.77 1.91-3.97M18.92 8h-2.95a15.65 15.65 0 0 0-1.38-3.56c1.84.63 3.37 1.9 4.33 3.56M12 2C6.47 2 2 6.5 2 12a10 10 0 0 0 10 10a10 10 0 0 0 10-10A10 10 0 0 0 12 2Z"/></symbol></svg>